<svg width="630" height="604" viewBox="0 0 630 604" fill="none" xmlns="http://www.w3.org/2000/svg">
<path fill-rule="evenodd" clip-rule="evenodd" d="M331.089 0.596125C382.585 4.53737 425.695 33.7186 469.932 60.4088C518.886 89.9455 574.883 113.153 601.546 163.776C630.686 219.103 637.081 285.625 620.283 345.871C603.066 407.622 556.617 454.066 508.74 496.631C455.853 543.649 401.705 599.108 331.089 602.978C259.205 606.918 194.264 562.781 138.727 516.908C85.9173 473.29 47.8139 416.021 26.0507 351.026C4.11767 285.525 -14.2472 211.414 15.5712 149.115C44.3775 88.93 115.604 66.2982 175.92 37.9064C225.268 14.6778 276.72 -3.56505 331.089 0.596125Z" fill="#F8F30A" fill-opacity="0.69"/>
</svg>
