<svg width="1440" height="4813" viewBox="0 0 1440 4813" fill="none" xmlns="http://www.w3.org/2000/svg">
<path d="M0 2806C930.262 4067.88 1201.04 3915.19 1440 2806V4813H0V2806Z" fill="#929447" fill-opacity="0.59"/>
<path d="M0 0H1440V920H0V0Z" fill="url(#paint0_linear_25766_61)"/>
<path d="M0 0H1440V920H0V0Z" fill="url(#paint1_linear_25766_61)"/>
<path d="M0 864H1440V1652H0V864Z" fill="url(#paint2_linear_25766_61)"/>
<path d="M0 864H1440V1652H0V864Z" fill="url(#paint3_linear_25766_61)"/>
<path d="M0 1652H1440V2806H0V1652Z" fill="url(#paint4_linear_25766_61)"/>
<path d="M0 1652H1440V2806H0V1652Z" fill="url(#paint5_linear_25766_61)"/>
<defs>
<linearGradient id="paint0_linear_25766_61" x1="720" y1="0" x2="720" y2="920" gradientUnits="userSpaceOnUse">
<stop offset="0.583333" stop-color="#FBFACA"/>
<stop offset="1" stop-color="#FBFACA" stop-opacity="0"/>
</linearGradient>
<linearGradient id="paint1_linear_25766_61" x1="720" y1="0" x2="720" y2="920" gradientUnits="userSpaceOnUse">
<stop offset="0.583333" stop-color="#FBFACA"/>
<stop offset="1" stop-color="#FBFACA" stop-opacity="0"/>
</linearGradient>
<linearGradient id="paint2_linear_25766_61" x1="720" y1="864" x2="720" y2="1652" gradientUnits="userSpaceOnUse">
<stop offset="0.583333" stop-color="#FBFACA"/>
<stop offset="1" stop-color="#FBFACA" stop-opacity="0"/>
</linearGradient>
<linearGradient id="paint3_linear_25766_61" x1="720" y1="864" x2="720" y2="1652" gradientUnits="userSpaceOnUse">
<stop offset="0.583333" stop-color="#FBFACA"/>
<stop offset="1" stop-color="#FBFACA" stop-opacity="0"/>
</linearGradient>
<linearGradient id="paint4_linear_25766_61" x1="720" y1="1652" x2="720" y2="2806" gradientUnits="userSpaceOnUse">
<stop offset="0.583333" stop-color="#FBFACA"/>
<stop offset="1" stop-color="#FBFACA" stop-opacity="0"/>
</linearGradient>
<linearGradient id="paint5_linear_25766_61" x1="720" y1="1652" x2="720" y2="2806" gradientUnits="userSpaceOnUse">
<stop offset="0.583333" stop-color="#FBFACA"/>
<stop offset="1" stop-color="#FBFACA" stop-opacity="0"/>
</linearGradient>
</defs>
</svg>
