<svg width="1345" height="1668" viewBox="0 0 1345 1668" fill="none" xmlns="http://www.w3.org/2000/svg">
<path fill-rule="evenodd" clip-rule="evenodd" d="M1123.34 1389.75C1078.81 1426.36 1030.04 1451.05 977.067 1473.74C912.434 1501.44 846.305 1562.68 781.073 1536.42C715.855 1510.18 708.425 1420.98 682.951 1355.38C662.482 1302.67 648.584 1250.17 647.952 1193.62C647.264 1132.18 635.001 1059.19 679.16 1016.52C723.322 973.851 797.484 1006.49 857.025 991.611C916.588 976.724 966.725 913.12 1025.79 929.891C1084.87 946.67 1099.36 1022.69 1137.17 1071.16C1181.18 1127.58 1268.32 1165.32 1265.22 1236.84C1262.12 1308.1 1178.39 1344.5 1123.34 1389.75Z" fill="#501F8E" fill-opacity="0.69"/>
<path fill-rule="evenodd" clip-rule="evenodd" d="M331.089 631.596C382.585 635.537 425.695 664.719 469.932 691.409C518.886 720.945 574.883 744.153 601.546 794.776C630.686 850.103 637.081 916.625 620.283 976.871C603.066 1038.62 556.617 1085.07 508.74 1127.63C455.853 1174.65 401.705 1230.11 331.089 1233.98C259.205 1237.92 194.264 1193.78 138.727 1147.91C85.9173 1104.29 47.8139 1047.02 26.0507 982.026C4.11767 916.525 -14.2472 842.414 15.5712 780.115C44.3775 719.93 115.604 697.298 175.92 668.906C225.268 645.678 276.72 627.435 331.089 631.596Z" fill="#F8F30A" fill-opacity="0.69"/>
<path fill-rule="evenodd" clip-rule="evenodd" d="M496.667 2.57746C569.813 -9.27778 650.926 20.5966 701.005 75.2857C748.384 127.027 738.857 205.818 746.66 275.583C752.776 330.274 751.413 382.442 741.41 436.556C729.764 499.558 736.234 578.125 683.917 615.01C631.574 651.913 560.624 611.817 496.667 609.108C436.467 606.558 375.365 624.746 320.583 599.62C258.302 571.054 186.622 529.187 175.015 461.58C163.366 393.727 235.736 343.686 266.033 281.882C290.521 231.93 299.918 177.437 335.33 134.553C380.691 79.6186 426.398 13.9664 496.667 2.57746Z" fill="#551CF7" fill-opacity="0.97"/>
<path fill-rule="evenodd" clip-rule="evenodd" d="M999.384 319.051C1064.02 331.519 1093.39 404.91 1147.62 442.277C1204.14 481.227 1288.55 481.686 1322.27 541.529C1357.48 604.018 1346.85 684.264 1321.87 751.514C1297.53 817.048 1250.7 876.443 1187.13 905.356C1128.68 931.94 1063.26 904.573 999.384 898.177C943.391 892.571 883.032 902.815 837.067 870.307C790.85 837.619 769.479 780.826 755.741 725.861C742.76 673.924 754.683 622.351 761.833 569.293C770.86 502.305 756.407 424.785 802.915 375.793C851.053 325.083 930.776 305.819 999.384 319.051Z" fill="#FC1010" fill-opacity="0.53"/>
</svg>
