<svg width="578" height="631" viewBox="0 0 578 631" fill="none" xmlns="http://www.w3.org/2000/svg">
<path fill-rule="evenodd" clip-rule="evenodd" d="M323.667 2.57746C396.813 -9.27778 477.926 20.5966 528.005 75.2857C575.384 127.027 565.857 205.818 573.66 275.583C579.776 330.274 578.413 382.442 568.41 436.556C556.764 499.558 563.234 578.125 510.917 615.01C458.574 651.913 387.624 611.817 323.667 609.108C263.467 606.558 202.365 624.746 147.583 599.62C85.3023 571.054 13.6221 529.187 2.01533 461.58C-9.63383 393.727 62.7364 343.686 93.0335 281.882C117.521 231.93 126.918 177.437 162.33 134.553C207.691 79.6186 253.398 13.9664 323.667 2.57746Z" fill="#551CF7" fill-opacity="0.97"/>
</svg>
