<svg width="621" height="616" viewBox="0 0 621 616" fill="none" xmlns="http://www.w3.org/2000/svg">
<path fill-rule="evenodd" clip-rule="evenodd" d="M478.343 462.754C433.813 499.364 385.037 524.046 332.067 546.744C267.434 574.441 201.305 635.675 136.073 609.424C70.8552 583.178 63.4254 493.982 37.9511 428.382C17.482 375.672 3.58435 323.173 2.95172 266.62C2.26437 205.175 -9.99882 132.189 34.1604 89.5212C78.3221 46.8515 152.484 79.4912 212.025 64.6106C271.588 49.7244 321.725 -13.8795 380.787 2.89146C439.875 19.6698 454.363 95.6906 492.17 144.16C536.176 200.576 623.32 238.324 620.216 309.844C617.124 381.097 533.389 417.498 478.343 462.754Z" fill="#501F8E" fill-opacity="0.69"/>
</svg>
