<svg width="596" height="602" viewBox="0 0 596 602" fill="none" xmlns="http://www.w3.org/2000/svg">
<path fill-rule="evenodd" clip-rule="evenodd" d="M250.384 4.05147C315.025 16.5191 344.386 89.9102 398.617 127.277C455.145 166.227 539.546 166.686 573.267 226.529C608.479 289.018 597.848 369.264 572.87 436.514C548.528 502.048 501.704 561.443 438.13 590.356C379.677 616.94 314.264 589.573 250.384 583.177C194.391 577.571 134.032 587.815 88.0674 555.307C41.8502 522.619 20.4788 465.826 6.74091 410.861C-6.24006 358.924 5.68298 307.351 12.8328 254.293C21.86 187.305 7.40685 109.785 53.9145 60.7925C102.053 10.0825 181.776 -9.18131 250.384 4.05147Z" fill="#FC1010" fill-opacity="0.53"/>
</svg>
